<mxfile host="app.diagrams.net" agent="Mozilla/5.0 (Windows NT 10.0; Win64; x64) AppleWebKit/537.36 (KHTML, like Gecko) Chrome/136.0.0.0 Safari/537.36" version="27.0.5">
  <diagram name="Page-1" id="yLg4B7Iq1QCwrLmlwN3W">
    <mxGraphModel dx="1042" dy="570" grid="1" gridSize="10" guides="1" tooltips="1" connect="1" arrows="1" fold="1" page="1" pageScale="1" pageWidth="850" pageHeight="1100" math="0" shadow="0">
      <root>
        <mxCell id="0" />
        <mxCell id="1" parent="0" />
        <mxCell id="5CBVjAmDTbJXbVQKM9If-4" style="edgeStyle=orthogonalEdgeStyle;rounded=0;orthogonalLoop=1;jettySize=auto;html=1;exitX=1;exitY=0.5;exitDx=0;exitDy=0;entryX=0;entryY=0.5;entryDx=0;entryDy=0;" parent="1" source="5CBVjAmDTbJXbVQKM9If-1" target="5CBVjAmDTbJXbVQKM9If-2" edge="1">
          <mxGeometry relative="1" as="geometry" />
        </mxCell>
        <object label="" Client="" placeholders="1" id="5CBVjAmDTbJXbVQKM9If-1">
          <mxCell style="rounded=0;whiteSpace=wrap;html=1;" parent="1" vertex="1">
            <mxGeometry x="50" y="200" width="120" height="60" as="geometry" />
          </mxCell>
        </object>
        <mxCell id="5CBVjAmDTbJXbVQKM9If-5" style="edgeStyle=orthogonalEdgeStyle;rounded=0;orthogonalLoop=1;jettySize=auto;html=1;exitX=1;exitY=0.5;exitDx=0;exitDy=0;entryX=0;entryY=0.5;entryDx=0;entryDy=0;" parent="1" source="5CBVjAmDTbJXbVQKM9If-2" target="5CBVjAmDTbJXbVQKM9If-3" edge="1">
          <mxGeometry relative="1" as="geometry" />
        </mxCell>
        <mxCell id="5CBVjAmDTbJXbVQKM9If-2" value="" style="rounded=0;whiteSpace=wrap;html=1;" parent="1" vertex="1">
          <mxGeometry x="330" y="200" width="120" height="60" as="geometry" />
        </mxCell>
        <object label="database" placeholders="1" database="" id="5CBVjAmDTbJXbVQKM9If-3">
          <mxCell style="rounded=0;whiteSpace=wrap;html=1;spacingTop=1;" parent="1" vertex="1">
            <mxGeometry x="600" y="200" width="120" height="60" as="geometry" />
          </mxCell>
        </object>
        <mxCell id="5CBVjAmDTbJXbVQKM9If-6" value="client&amp;nbsp;" style="text;html=1;align=center;verticalAlign=middle;resizable=0;points=[];autosize=1;strokeColor=none;fillColor=none;" parent="1" vertex="1">
          <mxGeometry x="80" y="215" width="50" height="30" as="geometry" />
        </mxCell>
        <mxCell id="5CBVjAmDTbJXbVQKM9If-7" value="API" style="text;html=1;align=center;verticalAlign=middle;resizable=0;points=[];autosize=1;strokeColor=none;fillColor=none;" parent="1" vertex="1">
          <mxGeometry x="370" y="215" width="40" height="30" as="geometry" />
        </mxCell>
      </root>
    </mxGraphModel>
  </diagram>
</mxfile>
